<?xml version="1.0" standalone="no"?>
<!DOCTYPE svg PUBLIC "-//W3C//DTD SVG 20010904//EN"
 "http://www.w3.org/TR/2001/REC-SVG-20010904/DTD/svg10.dtd">
<svg version="1.0" xmlns="http://www.w3.org/2000/svg"
 width="500.000000pt" height="500.000000pt" viewBox="0 0 500.000000 500.000000"
 preserveAspectRatio="xMidYMid meet">
<metadata>
Created by potrace 1.14, written by Peter Selinger 2001-2017
</metadata>
<g transform="translate(0.000000,500.000000) scale(0.100000,-0.100000)"
fill="#000000" stroke="none">
<path d="M2407 4884 c-1 -1 -40 -4 -87 -8 -125 -8 -145 -11 -360 -52 -123 -23
-334 -100 -505 -183 -582 -285 -1033 -821 -1219 -1451 -14 -47 -27 -96 -30
-110 -2 -14 -9 -43 -14 -65 -6 -22 -14 -62 -18 -90 -3 -27 -8 -59 -10 -70 -18
-96 -24 -417 -10 -555 55 -548 287 -1041 671 -1425 66 -67 154 -148 195 -181
350 -283 812 -473 1247 -511 149 -14 447 -8 558 11 203 35 347 72 499 127 121
45 338 153 434 217 58 38 88 53 96 46 7 -5 51 -39 97 -77 102 -82 255 -160
369 -189 72 -17 103 -20 205 -15 66 3 130 8 143 11 12 4 32 8 45 11 111 24
143 39 129 62 -5 7 -23 8 -56 3 -49 -7 -185 -6 -221 3 -122 29 -207 64 -295
122 -71 46 -188 150 -221 196 l-20 29 28 24 c200 170 417 452 550 717 77 154
160 386 187 522 13 64 16 78 21 105 2 15 7 38 9 52 5 24 13 84 21 165 5 48 6
335 1 385 -33 340 -97 573 -236 855 -150 305 -338 548 -585 756 -22 19 -42 36
-45 39 -5 5 -92 70 -150 111 -212 153 -498 280 -780 347 -134 33 -182 40 -353
58 -63 6 -285 12 -290 8z m258 -148 c60 -4 112 -9 115 -11 3 -1 28 -6 55 -9
188 -25 446 -107 636 -202 208 -103 332 -186 499 -334 354 -313 601 -741 695
-1203 35 -173 40 -232 40 -457 0 -228 -4 -262 -61 -539 -3 -13 -18 -65 -35
-117 -116 -363 -302 -660 -589 -941 l-75 -74 -25 32 c-141 180 -311 536 -464
970 -30 85 -84 240 -121 344 -36 105 -89 253 -116 330 -28 77 -54 151 -59 165
-238 679 -295 816 -399 970 -94 139 -151 199 -241 258 -195 126 -384 150 -654
82 -63 -16 -186 -61 -186 -69 1 -27 18 -29 77 -11 283 88 531 13 709 -215 l32
-40 -30 -75 c-16 -41 -35 -88 -43 -105 -7 -16 -82 -194 -165 -395 -84 -201
-158 -378 -166 -395 -7 -16 -22 -53 -33 -81 -11 -28 -28 -71 -39 -95 -11 -24
-25 -57 -32 -74 -259 -624 -447 -1066 -467 -1098 -64 -102 -164 -166 -270
-175 -53 -4 -63 -8 -63 -23 0 -11 6 -19 13 -20 15 -1 727 -1 745 0 6 1 12 10
12 21 0 17 -7 20 -40 20 -52 0 -92 21 -126 66 -47 62 -41 92 85 419 161 414
163 419 173 426 15 10 1038 7 1044 -2 7 -11 124 -347 131 -374 6 -25 26 -79
103 -275 99 -255 204 -451 337 -628 40 -53 73 -100 73 -103 0 -7 -135 -90
-220 -136 -126 -67 -367 -156 -520 -191 -149 -35 -329 -55 -495 -55 -87 -1
-272 10 -311 17 -10 2 -39 7 -64 11 -204 33 -447 113 -632 206 -321 162 -639
446 -845 754 -172 257 -298 581 -339 865 -2 19 -7 45 -10 58 -23 106 -23 457
0 603 23 149 24 153 52 264 77 303 263 654 469 885 340 380 759 623 1244 719
130 26 164 30 326 37 77 4 142 8 144 10 2 2 7 2 10 0 3 -2 55 -7 116 -10z
m-21 -1348 c20 -48 55 -138 77 -200 44 -121 328 -956 332 -973 1 -7 -164 -10
-480 -11 l-481 -1 13 36 c9 26 447 1150 482 1239 8 19 16 7 57 -90z"/>
</g>
</svg>
